<svg width="530" height="121" viewBox="0 0 530 121" fill="none" xmlns="http://www.w3.org/2000/svg">
<path d="M40.95 33.2C32.6667 33.2 25.725 37.1667 20.125 45.1C14.6417 53.0333 11.9 64 11.9 78C11.9 92 14.4083 102.383 19.425 109.15C24.5583 115.917 31.2667 119.3 39.55 119.3C49.9333 119.3 59.15 117.55 67.2 114.05L67.725 115.275C59.4417 118.892 49.7583 120.7 38.675 120.7C27.5917 120.7 18.375 117.2 11.025 110.2C3.675 103.2 4.95464e-07 92.4083 4.95464e-07 77.825C4.95464e-07 63.2417 3.85 51.925 11.55 43.875C19.25 35.825 29.05 31.8 40.95 31.8C47.6 31.8 53.725 33.3167 59.325 36.35C65.0417 39.3833 69.2417 43.9917 71.925 50.175H60.725C58.975 44.4583 56.2917 40.2 52.675 37.4C49.175 34.6 45.2667 33.2 40.95 33.2ZM107.353 120C102.57 120 98.8946 118.95 96.3279 116.85C93.8779 114.75 92.5946 112.65 92.4779 110.55L92.3029 107.575V32.5H104.553V107.575C104.553 110.958 105.195 113.583 106.478 115.45C107.878 117.2 109.22 118.133 110.503 118.25L112.603 118.6H118.028V120H107.353ZM93.3529 12.9C91.9529 11.5 91.2529 9.75 91.2529 7.65C91.2529 5.55 91.9529 3.79999 93.3529 2.39999C94.7529 0.883323 96.5029 0.124989 98.6029 0.124989C100.703 0.124989 102.453 0.883323 103.853 2.39999C105.37 3.79999 106.128 5.55 106.128 7.65C106.128 9.75 105.37 11.5 103.853 12.9C102.453 14.3 100.703 15 98.6029 15C96.5029 15 94.7529 14.3 93.3529 12.9ZM169.541 33.2C161.257 33.2 154.316 37.1667 148.716 45.1C143.232 53.0333 140.491 64 140.491 78C140.491 92 142.999 102.383 148.016 109.15C153.149 115.917 159.857 119.3 168.141 119.3C178.524 119.3 187.741 117.55 195.791 114.05L196.316 115.275C188.032 118.892 178.349 120.7 167.266 120.7C156.182 120.7 146.966 117.2 139.616 110.2C132.266 103.2 128.591 92.4083 128.591 77.825C128.591 63.2417 132.441 51.925 140.141 43.875C147.841 35.825 157.641 31.8 169.541 31.8C176.191 31.8 182.316 33.3167 187.916 36.35C193.632 39.3833 197.832 43.9917 200.516 50.175H189.316C187.566 44.4583 184.882 40.2 181.266 37.4C177.766 34.6 173.857 33.2 169.541 33.2ZM235.944 120C231.16 120 227.485 118.95 224.919 116.85C222.469 114.75 221.185 112.65 221.069 110.55L220.894 107.575V32.5H233.144V107.575C233.144 110.958 233.785 113.583 235.069 115.45C236.469 117.2 237.81 118.133 239.094 118.25L241.194 118.6H246.619V120H235.944ZM221.944 12.9C220.544 11.5 219.844 9.75 219.844 7.65C219.844 5.55 220.544 3.79999 221.944 2.39999C223.344 0.883323 225.094 0.124989 227.194 0.124989C229.294 0.124989 231.044 0.883323 232.444 2.39999C233.96 3.79999 234.719 5.55 234.719 7.65C234.719 9.75 233.96 11.5 232.444 12.9C231.044 14.3 229.294 15 227.194 15C225.094 15 223.344 14.3 221.944 12.9ZM334.754 120C326.821 120 321.396 118.483 318.479 115.45C315.796 112.883 314.454 110.667 314.454 108.8V105.125C308.738 115.508 299.579 120.7 286.979 120.7C272.279 120.7 263.938 114.05 261.954 100.75C261.721 99.35 261.604 97.95 261.604 96.55C261.604 95.0333 261.838 93.4 262.304 91.65C262.771 89.9 264.113 87.975 266.329 85.875C270.763 81.675 280.504 79.1083 295.554 78.175C299.288 77.825 302.729 77.65 305.879 77.65C309.029 77.65 311.888 77.7667 314.454 78V48.95C314.221 48.8333 314.221 48.3083 314.454 47.375C314.688 46.325 314.454 45.0417 313.754 43.525C313.171 41.8917 312.354 40.3167 311.304 38.8C310.254 37.2833 308.388 36 305.704 34.95C303.021 33.7833 299.521 33.2 295.204 33.2C290.888 33.2 285.813 34.0167 279.979 35.65C274.263 37.1667 270.063 38.6833 267.379 40.2L266.679 38.975C277.063 34.1917 287.621 31.8 298.354 31.8C310.371 31.8 318.304 33.9583 322.154 38.275C325.188 41.6583 326.704 45.2167 326.704 48.95V107.575C326.704 110.958 327.346 113.583 328.629 115.45C330.029 117.2 331.429 118.133 332.829 118.25L334.754 118.6H340.179V120H334.754ZM289.779 119.3C295.963 119.3 301.504 117.2 306.404 113C311.421 108.683 314.104 104.542 314.454 100.575V79.4C311.304 79.1667 308.096 79.05 304.829 79.05C301.679 79.05 298.529 79.225 295.379 79.575C286.513 80.625 280.738 82.6083 278.054 85.525C275.371 88.4417 274.029 92.4667 274.029 97.6C274.029 98.5333 274.088 99.5833 274.204 100.75C275.254 113.117 280.446 119.3 289.779 119.3ZM427.684 120C422.9 120 419.225 118.95 416.659 116.85C414.209 114.75 412.925 112.65 412.809 110.55L412.634 107.575V52.625C412.634 43.4083 410.242 37.5167 405.459 34.95C403.009 33.7833 399.975 33.2 396.359 33.2C388.892 33.2 382.184 36.175 376.234 42.125C370.284 47.9583 367.309 53.2083 367.309 57.875V120H355.059V32.5H367.309V52.45C369.292 47.4333 372.967 42.7667 378.334 38.45C383.7 34.0167 389.592 31.8 396.009 31.8C402.425 31.8 407.617 32.4417 411.584 33.725C415.667 34.8917 418.642 36.5833 420.509 38.8C423.425 42.4167 424.884 47.0833 424.884 52.8V107.575C424.884 110.958 425.525 113.583 426.809 115.45C428.209 117.2 429.609 118.133 431.009 118.25L432.934 118.6H438.359V120H427.684ZM486.891 120.7C474.641 120.7 464.666 117.2 456.966 110.2C449.266 103.2 445.416 92.4083 445.416 77.825C445.416 63.2417 449.383 51.925 457.316 43.875C465.366 35.825 475.516 31.8 487.766 31.8C500.133 31.8 510.166 35.3 517.866 42.3C525.566 49.3 529.416 60.0917 529.416 74.675C529.416 89.2583 525.391 100.575 517.341 108.625C509.408 116.675 499.258 120.7 486.891 120.7ZM488.116 33.2C479.249 33.2 471.899 37.1667 466.066 45.1C460.233 52.9167 457.316 63.8833 457.316 78C457.316 92 459.999 102.383 465.366 109.15C470.733 115.917 477.849 119.3 486.716 119.3C495.583 119.3 502.933 115.392 508.766 107.575C514.599 99.6417 517.516 88.675 517.516 74.675C517.516 60.5583 514.833 50.1167 509.466 43.35C504.099 36.5833 496.983 33.2 488.116 33.2Z" fill="white"/>
</svg>
